<svg xmlns="http://www.w3.org/2000/svg" width="555" height="94" fill="none" viewBox="0 0 555 94"><path fill="#1877F2" d="M42.8068 26.5455V41.8864H0.704546V26.5455H42.8068ZM9.48296 92V23.2216C9.48296 18.1648 10.4347 13.9744 12.3381 10.6506C14.2415 7.29829 16.8835 4.79829 20.2642 3.15057C23.6449 1.47443 27.5511 0.636358 31.983 0.636358C34.8807 0.636358 37.608 0.863633 40.1648 1.31818C42.75 1.74432 44.6676 2.12784 45.9176 2.46875L42.5938 17.7244C41.8267 17.4687 40.8892 17.2557 39.7812 17.0852C38.7017 16.9148 37.679 16.8295 36.7131 16.8295C34.2699 16.8295 32.5938 17.3693 31.6847 18.4489C30.7756 19.5284 30.321 21.0057 30.321 22.8807V92H9.48296ZM68.7053 93.108C64.5291 93.108 60.8217 92.4119 57.5831 91.0199C54.3729 89.5994 51.8303 87.4687 49.9553 84.6278C48.1087 81.7585 47.1854 78.1648 47.1854 73.8466C47.1854 70.2102 47.8246 67.142 49.103 64.642C50.3814 62.142 52.1428 60.1108 54.3871 58.5483C56.6314 56.9858 59.2166 55.8068 62.1428 55.0114C65.0689 54.1875 68.1939 53.6335 71.5178 53.3494C75.2393 53.0085 78.2365 52.6534 80.5092 52.2841C82.782 51.8864 84.4297 51.3324 85.4524 50.6222C86.5036 49.8835 87.0291 48.8466 87.0291 47.5114V47.2983C87.0291 45.1108 86.2763 43.4205 84.7706 42.2273C83.2649 41.0341 81.2337 40.4375 78.6768 40.4375C75.9212 40.4375 73.7053 41.0341 72.0291 42.2273C70.353 43.4205 69.2876 45.0682 68.8331 47.1705L49.6143 46.4886C50.1825 42.5114 51.6456 38.9602 54.0036 35.8352C56.3899 32.6818 59.657 30.2102 63.8047 28.4205C67.9808 26.6023 72.995 25.6932 78.8473 25.6932C83.0234 25.6932 86.8729 26.1903 90.3956 27.1847C93.9183 28.1506 96.9865 29.571 99.6001 31.446C102.214 33.2926 104.231 35.5653 105.651 38.2642C107.1 40.9631 107.825 44.0455 107.825 47.5114V92H88.2223V82.8807H87.7109C86.5462 85.0966 85.0547 86.9716 83.2365 88.5057C81.4467 90.0398 79.3303 91.1903 76.8871 91.9574C74.4723 92.7244 71.745 93.108 68.7053 93.108ZM75.1399 79.4716C77.3842 79.4716 79.4013 79.017 81.1911 78.108C83.0092 77.1989 84.4581 75.9489 85.5376 74.358C86.6172 72.7386 87.157 70.8636 87.157 68.733V62.5114C86.5604 62.8239 85.8359 63.108 84.9837 63.3636C84.1598 63.6193 83.2507 63.8608 82.2564 64.0881C81.2621 64.3153 80.2393 64.5142 79.1882 64.6847C78.1371 64.8551 77.1286 65.0114 76.1626 65.1534C74.2024 65.4659 72.5263 65.9489 71.1342 66.6023C69.7706 67.2557 68.7195 68.108 67.9808 69.1591C67.2706 70.1818 66.9155 71.4034 66.9155 72.8239C66.9155 74.983 67.6825 76.6307 69.2166 77.767C70.7791 78.9034 72.7536 79.4716 75.1399 79.4716ZM151.12 93.2358C144.217 93.2358 138.293 91.8153 133.35 88.9744C128.435 86.1335 124.657 82.1847 122.015 77.1278C119.373 72.0426 118.052 66.1619 118.052 59.4858C118.052 52.7812 119.373 46.9006 122.015 41.8438C124.685 36.7585 128.478 32.7955 133.393 29.9545C138.336 27.1136 144.231 25.6932 151.077 25.6932C157.129 25.6932 162.398 26.7869 166.887 28.9744C171.404 31.1619 174.927 34.2585 177.455 38.2642C180.012 42.2415 181.362 46.9148 181.504 52.2841H162.029C161.631 48.9318 160.495 46.304 158.62 44.4006C156.773 42.4972 154.359 41.5455 151.376 41.5455C148.961 41.5455 146.844 42.2273 145.026 43.5909C143.208 44.9261 141.788 46.9148 140.765 49.5568C139.771 52.1705 139.273 55.4091 139.273 59.2727C139.273 63.1364 139.771 66.4034 140.765 69.0739C141.788 71.7159 143.208 73.7187 145.026 75.0824C146.844 76.4176 148.961 77.0852 151.376 77.0852C153.308 77.0852 155.012 76.6733 156.489 75.8494C157.995 75.0256 159.231 73.8182 160.197 72.2273C161.163 70.608 161.773 68.6477 162.029 66.3466H181.504C181.305 71.7443 179.955 76.4602 177.455 80.4943C174.984 84.5284 171.504 87.6676 167.015 89.9119C162.555 92.1278 157.256 93.2358 151.12 93.2358ZM222.764 93.2358C215.918 93.2358 210.009 91.8864 205.037 89.1875C200.094 86.4602 196.287 82.5824 193.616 77.554C190.974 72.4972 189.653 66.4886 189.653 59.5284C189.653 52.767 190.989 46.858 193.659 41.8011C196.33 36.7159 200.094 32.767 204.952 29.9545C209.81 27.1136 215.534 25.6932 222.125 25.6932C226.784 25.6932 231.045 26.4176 234.909 27.8665C238.773 29.3153 242.111 31.4602 244.923 34.3011C247.736 37.142 249.923 40.6506 251.486 44.8267C253.048 48.9744 253.83 53.733 253.83 59.1023V64.3011H196.94V52.1989H234.44C234.412 49.983 233.886 48.0085 232.864 46.2756C231.841 44.5426 230.435 43.1932 228.645 42.2273C226.884 41.233 224.852 40.7358 222.551 40.7358C220.222 40.7358 218.134 41.2614 216.287 42.3125C214.44 43.3352 212.977 44.7415 211.898 46.5312C210.818 48.2926 210.25 50.2955 210.193 52.5398V64.8551C210.193 67.5256 210.719 69.8693 211.77 71.8864C212.821 73.875 214.312 75.4233 216.244 76.5312C218.176 77.6392 220.477 78.1932 223.148 78.1932C224.994 78.1932 226.67 77.9375 228.176 77.4261C229.682 76.9148 230.974 76.1619 232.054 75.1676C233.134 74.1733 233.943 72.9517 234.483 71.5028L253.616 72.0568C252.821 76.3466 251.074 80.0824 248.375 83.2642C245.705 86.4176 242.196 88.875 237.849 90.6364C233.503 92.3693 228.474 93.2358 222.764 93.2358ZM264.472 92V4.72727H285.31V37.7528H285.737C286.589 35.7642 287.796 33.8466 289.359 32C290.95 30.1534 292.967 28.6477 295.41 27.483C297.881 26.2898 300.836 25.6932 304.273 25.6932C308.819 25.6932 313.066 26.8864 317.015 29.2727C320.992 31.6591 324.202 35.3381 326.646 40.3097C329.089 45.2812 330.31 51.6165 330.31 59.3153C330.31 66.7301 329.131 72.9375 326.773 77.9375C324.444 82.9375 321.29 86.6875 317.313 89.1875C313.364 91.6875 308.975 92.9375 304.146 92.9375C300.85 92.9375 297.995 92.3977 295.58 91.3182C293.165 90.2386 291.134 88.8182 289.487 87.0568C287.867 85.2955 286.617 83.4062 285.737 81.3892H285.097V92H264.472ZM284.884 59.2727C284.884 62.7955 285.353 65.8636 286.29 68.4773C287.256 71.0909 288.634 73.1222 290.424 74.571C292.242 75.9915 294.415 76.7017 296.944 76.7017C299.501 76.7017 301.674 75.9915 303.464 74.571C305.254 73.1222 306.603 71.0909 307.512 68.4773C308.45 65.8636 308.918 62.7955 308.918 59.2727C308.918 55.75 308.45 52.696 307.512 50.1108C306.603 47.5256 305.254 45.5227 303.464 44.1023C301.702 42.6818 299.529 41.9716 296.944 41.9716C294.387 41.9716 292.214 42.6676 290.424 44.0597C288.634 45.4517 287.256 47.4403 286.29 50.0256C285.353 52.6108 284.884 55.6932 284.884 59.2727ZM371.784 93.2358C364.909 93.2358 359 91.8295 354.057 89.017C349.142 86.1761 345.349 82.2273 342.679 77.1705C340.037 72.0852 338.716 66.1903 338.716 59.4858C338.716 52.7528 340.037 46.858 342.679 41.8011C345.349 36.7159 349.142 32.767 354.057 29.9545C359 27.1136 364.909 25.6932 371.784 25.6932C378.659 25.6932 384.554 27.1136 389.469 29.9545C394.412 32.767 398.205 36.7159 400.847 41.8011C403.517 46.858 404.852 52.7528 404.852 59.4858C404.852 66.1903 403.517 72.0852 400.847 77.1705C398.205 82.2273 394.412 86.1761 389.469 89.017C384.554 91.8295 378.659 93.2358 371.784 93.2358ZM371.912 77.5114C374.412 77.5114 376.528 76.7443 378.261 75.2102C379.994 73.6761 381.315 71.5455 382.224 68.8182C383.162 66.0909 383.631 62.9375 383.631 59.358C383.631 55.7216 383.162 52.5398 382.224 49.8125C381.315 47.0852 379.994 44.9545 378.261 43.4205C376.528 41.8864 374.412 41.1193 371.912 41.1193C369.327 41.1193 367.139 41.8864 365.349 43.4205C363.588 44.9545 362.239 47.0852 361.301 49.8125C360.392 52.5398 359.938 55.7216 359.938 59.358C359.938 62.9375 360.392 66.0909 361.301 68.8182C362.239 71.5455 363.588 73.6761 365.349 75.2102C367.139 76.7443 369.327 77.5114 371.912 77.5114ZM446.081 93.2358C439.206 93.2358 433.297 91.8295 428.354 89.017C423.439 86.1761 419.646 82.2273 416.976 77.1705C414.334 72.0852 413.013 66.1903 413.013 59.4858C413.013 52.7528 414.334 46.858 416.976 41.8011C419.646 36.7159 423.439 32.767 428.354 29.9545C433.297 27.1136 439.206 25.6932 446.081 25.6932C452.956 25.6932 458.851 27.1136 463.766 29.9545C468.709 32.767 472.501 36.7159 475.143 41.8011C477.814 46.858 479.149 52.7528 479.149 59.4858C479.149 66.1903 477.814 72.0852 475.143 77.1705C472.501 82.2273 468.709 86.1761 463.766 89.017C458.851 91.8295 452.956 93.2358 446.081 93.2358ZM446.209 77.5114C448.709 77.5114 450.825 76.7443 452.558 75.2102C454.291 73.6761 455.612 71.5455 456.521 68.8182C457.459 66.0909 457.928 62.9375 457.928 59.358C457.928 55.7216 457.459 52.5398 456.521 49.8125C455.612 47.0852 454.291 44.9545 452.558 43.4205C450.825 41.8864 448.709 41.1193 446.209 41.1193C443.624 41.1193 441.436 41.8864 439.646 43.4205C437.885 44.9545 436.536 47.0852 435.598 49.8125C434.689 52.5398 434.234 55.7216 434.234 59.358C434.234 62.9375 434.689 66.0909 435.598 68.8182C436.536 71.5455 437.885 73.6761 439.646 75.2102C441.436 76.7443 443.624 77.5114 446.209 77.5114ZM508.616 74.8267L508.702 49.983H511.599L530.009 26.5455H553.616L526.259 60.125H520.761L508.616 74.8267ZM489.824 92V4.72727H510.662V92H489.824ZM530.477 92L513.347 64.8125L527.068 50.0256L554.554 92H530.477Z"/></svg>